<?xml version="1.0" encoding="UTF-8"?>
<svg viewBox="0 0 135 137.01292" xmlns="http://www.w3.org/2000/svg">
 <g transform="translate(-177.97 -471.37)">
  <g transform="translate(0 6.0099)" fill="#fff" stroke="#000" stroke-dashoffset="3.003" stroke-linecap="round" stroke-linejoin="round" stroke-width="2">
   <path d="m232.46 582.55 1.0564 2.3542c-0.67494 0.46068-1.4317 0.83722-1.8411 1.5393 0.17797 0.84548 1.6013 1.1703 1.8109 2.0524-0.55895 0.50862-1.4029 0.7086-1.9316 1.4186 0.44204 0.58335 1.1023 1.4942 1.7807 1.8411-0.71478 0.36612-0.89756 0.66746-1.328 1.5695 0.37896 0.30357 1.0596 1.0686 1.7506 1.5996 0.88459 0.86275 3.0484 3.0182 3.0484 3.0182 0.0122 0.0976 0.45529 0.21339 1.0564 0.30182l2.324 2.5353c2.0767 0.74385 4.0672 0.79815 6.6099 0.12073l2.5956-2.7466c0.35917-0.0741 0.7077-0.14319 0.96582-0.24146 1.4192-1.0133 1.8662-1.7608 3.1691-3.1389 0.46047-0.36263 1.1071-1.6967 1.3884-2.1127-0.51916-0.7847-0.52326-0.76237-1.0866-1.2073 0.3588-0.52745 1.4856-0.7814 1.66-1.7204l-1.6902-1.3582c0.20695-0.7911 1.4157-1.2312 1.6298-2.0222-0.20973-0.68452-1.186-1.06-1.66-1.5695l0.60364-2.2335h-21.912z"/>
   <path d="m243.06 502.22c-16.532 0-30.851 13.853-29.935 30.887-0.49191 4.4358 5.1176 15.111 10.09 21.099 6.744 12.129 7.3898 13.576 7.8347 26.81 0.34299 1.5822 1.1457 2.0701 1.969 2.2519 8.678 1.6898 15.387 0.73425 20.556 0.0966 1.243-0.41525 1.9928-1.203 1.9055-2.2834 0.49542-17.977 3.2435-16.885 11.491-30.716 4.5672-6.2416 6.254-15.436 6.2948-19.708 0.48741-23.806-21.321-28.181-30.207-28.438z"/>
   <path d="m240.97 466.36-1 26"/>
   <path d="m195.97 481.36 18 22"/>
   <path d="m178.97 520.36 26 5"/>
   <path d="m269.97 504.36 15-28"/>
   <path d="m284.97 528.36 27-1"/>
   <path d="m278.97 555.36 17 14"/>
   <path d="m210.97 552.36-21 13"/>
  </g>
 </g>
</svg>
